<svg width="1048" height="642" viewBox="0 0 1048 642" fill="none" xmlns="http://www.w3.org/2000/svg">
<path d="M61.5 641.5H0V172H83L280 421V172H340V510H280L61.5 255V641.5Z" fill="url(#paint0_linear_87_1156)"/>
<path d="M440.5 510H373L508 336L373 172H440.5L541 295.5L633.5 172H713L575.5 336L713 510H643.5L541 378.5L440.5 510Z" fill="url(#paint1_linear_87_1156)"/>
<path d="M726 438L792.5 510V322.5C792.5 273.899 831.899 234.5 880.5 234.5H1047.5V172H856C784.203 172 726 230.203 726 302V438Z" fill="url(#paint2_linear_87_1156)"/>
<path d="M892 446.5V386H1047.5V641.5H776.466C771.943 641.5 767.541 640.04 763.915 637.337L687 580H982V446.5H892Z" fill="url(#paint3_linear_87_1156)"/>
<path d="M0 1.71275H45.2021C54.6909 1.71275 62.3028 4.41163 68.0378 9.8094C73.7728 15.2072 76.6403 24.3159 76.6403 37.1356C76.6403 46.1145 75.3369 53.2251 72.7301 58.4671C70.1232 63.7092 66.4476 67.472 61.7032 69.7557C56.9588 71.9875 51.3803 73.1034 44.9675 73.1034H15.7973V114.287H0V1.71275ZM45.2803 61.1919C49.8683 61.1919 53.2572 60.102 55.4469 57.9221C57.6366 55.6904 59.0704 52.8098 59.7481 49.2805C60.478 45.7512 60.843 42.0662 60.843 38.2255C60.843 34.5405 60.5562 30.8036 59.9827 27.0148C59.4092 23.226 58.0537 20.06 55.9161 17.5168C53.8307 14.9217 50.4157 13.6242 45.6713 13.6242H15.7973V61.1919H45.2803Z" fill="white"/>
<path d="M147.806 116C138.37 116 130.601 115.04 124.501 113.119C118.454 111.199 113.735 108.5 110.346 105.023C106.957 101.494 104.585 97.3154 103.23 92.4886C101.874 87.6617 101.196 82.3159 101.196 76.451V41.0282C101.196 35.0595 101.848 29.5839 103.152 24.6013C104.507 19.6188 106.879 15.285 110.268 11.6C113.657 7.91499 118.375 5.0604 124.423 3.03624C130.523 1.01208 138.317 0 147.806 0C156.93 0 164.438 1.06398 170.329 3.19195C176.22 5.31991 180.808 8.30425 184.093 12.145C187.378 15.9338 189.672 20.3714 190.975 25.4577C192.331 30.5441 193.008 36.0716 193.008 42.0403V75.3611C193.008 81.1221 192.331 86.494 190.975 91.4765C189.672 96.4072 187.352 100.715 184.015 104.4C180.73 108.033 176.142 110.888 170.251 112.964C164.359 114.988 156.878 116 147.806 116ZM147.806 103.388C154.532 103.388 160.058 102.739 164.386 101.442C168.765 100.092 171.997 97.6528 174.083 94.1235C176.22 90.5942 177.289 85.5078 177.289 78.8644V38.1477C177.289 31.4523 176.22 26.2622 174.083 22.5772C171.945 18.8922 168.687 16.323 164.307 14.8698C159.98 13.3647 154.48 12.6121 147.806 12.6121C141.185 12.6121 135.58 13.3647 130.992 14.8698C126.404 16.323 122.911 18.8922 120.513 22.5772C118.167 26.2622 116.994 31.4523 116.994 38.1477V78.8644C116.994 85.5078 118.167 90.5942 120.513 94.1235C122.859 97.6528 126.326 100.092 130.914 101.442C135.502 102.739 141.133 103.388 147.806 103.388Z" fill="white"/>
<path d="M215.218 1.71275H229.608L253.617 87.3503L278.251 1.71275H295.065L320.794 87.3503L343.552 1.71275H357.863L327.051 114.287H315.164L287.557 18.3732L259.169 114.287H247.282L215.218 1.71275Z" fill="white"/>
<path d="M383.671 1.71275H454.289V13.3906H399.39V50.4483H447.876V62.1262H399.39V102.609H455.228V114.287H383.671V1.71275Z" fill="white"/>
<path d="M481.895 114.287V1.71275H532.337C538.698 1.71275 544.224 2.75078 548.916 4.82685C553.661 6.85101 557.336 10.3025 559.943 15.1812C562.602 20.0081 563.932 26.6255 563.932 35.0336C563.932 41.106 563.254 46.0886 561.898 49.9812C560.543 53.8738 558.666 56.9879 556.268 59.3235C553.921 61.6072 551.158 63.4237 547.978 64.7732L571.987 114.287H555.798L533.354 67.5758H497.693V114.287H481.895ZM497.693 55.7423H531.008C535.596 55.7423 539.115 54.8859 541.565 53.1732C544.016 51.4604 545.71 49.1508 546.648 46.2443C547.639 43.2859 548.134 40.0161 548.134 36.4349C548.134 32.8018 547.822 29.2465 547.196 25.7691C546.622 22.2917 545.267 19.4112 543.129 17.1275C540.992 14.7919 537.551 13.6242 532.806 13.6242H497.693V55.7423Z" fill="white"/>
<path d="M596.386 1.71275H667.005V13.3906H612.106V50.4483H660.592V62.1262H612.106V102.609H667.943V114.287H596.386V1.71275Z" fill="white"/>
<path d="M694.611 114.287V1.71275H739.5C749.98 1.71275 758.348 3.39955 764.604 6.77315C770.86 10.0949 775.37 14.6103 778.133 20.3195C780.949 26.0286 782.356 32.4644 782.356 39.6268V76.7624C782.356 84.8591 780.792 91.7101 777.664 97.3154C774.536 102.869 769.818 107.099 763.509 110.005C757.201 112.86 749.25 114.287 739.657 114.287H694.611ZM710.408 102.609H738.093C743.515 102.609 748.364 102.038 752.639 100.897C756.966 99.7029 760.381 97.3673 762.884 93.8899C765.386 90.4125 766.637 85.2224 766.637 78.3195V38.6926C766.637 31.7378 765.36 26.4698 762.805 22.8886C760.303 19.2555 756.888 16.7902 752.561 15.4926C748.285 14.1432 743.463 13.4685 738.093 13.4685H710.408V102.609Z" fill="white"/>
<path d="M853.679 114.287V1.71275H894.658C905.137 1.71275 913.062 2.93244 918.432 5.37181C923.802 7.75928 927.425 11.2626 929.302 15.8819C931.231 20.5011 932.196 26.0805 932.196 32.6201C932.196 37.966 930.945 42.6371 928.442 46.6336C925.94 50.63 921.508 53.3808 915.147 54.8859L915.382 53.6403C920.387 54.315 924.532 55.9758 927.817 58.6228C931.101 61.2179 933.551 64.5396 935.168 68.5879C936.836 72.6362 937.67 77.2036 937.67 82.2899C937.67 93.4488 934.516 101.571 928.208 106.658C921.899 111.744 911.863 114.287 898.099 114.287H853.679ZM869.476 102.687H896.926C902.765 102.687 907.536 102.116 911.237 100.974C914.991 99.8327 917.754 97.6787 919.527 94.5128C921.299 91.3468 922.186 86.7016 922.186 80.5772C922.186 77.1517 921.586 73.8819 920.387 70.7678C919.24 67.6018 917.129 65.0327 914.053 63.0604C910.976 61.0881 906.545 60.102 900.758 60.102H869.476V102.687ZM869.476 49.4362H898.49C903.234 49.4362 906.91 48.7615 909.517 47.4121C912.123 46.0107 913.922 44.0644 914.913 41.5732C915.956 39.0819 916.477 36.1494 916.477 32.7758C916.477 27.3262 915.773 23.226 914.365 20.4752C913.01 17.7244 910.559 15.8819 907.014 14.9477C903.521 13.9615 898.594 13.4685 892.234 13.4685H869.476V49.4362Z" fill="white"/>
<path d="M991.475 70.0671L951.434 1.71275H968.092L1001.09 59.4013H997.653L1030.81 1.71275H1047L1007.19 70.0671V114.287H991.475V70.0671Z" fill="white"/>
<defs>
<linearGradient id="paint0_linear_87_1156" x1="523.75" y1="172" x2="523.75" y2="641.5" gradientUnits="userSpaceOnUse">
<stop stop-color="#999999"/>
<stop offset="0.460537" stop-color="white"/>
<stop offset="1" stop-color="#999999"/>
</linearGradient>
<linearGradient id="paint1_linear_87_1156" x1="523.75" y1="172" x2="523.75" y2="641.5" gradientUnits="userSpaceOnUse">
<stop stop-color="#999999"/>
<stop offset="0.460537" stop-color="white"/>
<stop offset="1" stop-color="#999999"/>
</linearGradient>
<linearGradient id="paint2_linear_87_1156" x1="523.75" y1="172" x2="523.75" y2="641.5" gradientUnits="userSpaceOnUse">
<stop stop-color="#999999"/>
<stop offset="0.460537" stop-color="white"/>
<stop offset="1" stop-color="#999999"/>
</linearGradient>
<linearGradient id="paint3_linear_87_1156" x1="523.75" y1="172" x2="523.75" y2="641.5" gradientUnits="userSpaceOnUse">
<stop stop-color="#999999"/>
<stop offset="0.460537" stop-color="white"/>
<stop offset="1" stop-color="#999999"/>
</linearGradient>
</defs>
</svg>
